Naty A Tout Pris - Naty took everything (2000)

Cover: 
http://imagebb.org/view.php?filename=66692162491.jpg

Preview: 
http://imagebb.org/view.php?filename=963N.A.T.Pris_s.jpg

Info:

Starring: Lisa, Cynthia, Nataly Dune, Amia.
Things get freaky-deaky over in France. Sure, there are some very beautiful women in this one; it’s an adult film so there’s some good blowjob, and pussy eating scenes. The fucking is pretty damn good too, and there’s even a gangbang and some anal. But what is up with the gas mask and the guy with the crazy teeth? Find out for yourself!


Format                           : AVI
Format/Info                      : Audio Video Interleave
File size                        : 619 MiB
Duration                         : 1h 14mn
Overall bit rate                 : 1 164 Kbps
Writing application              : Lavf51.12.2

Video
ID                               : 0
Format                           : xvid
Codec ID                         : xvid
Duration                         : 1h 14mn
Bit rate                         : 1 024 Kbps
Width                            : 640 pixels
Height                           : 480 pixels
Display aspect ratio             : 4:3
Frame rate                       : 25.000 fps
Bits/(Pixel*Frame)               : 0.133
Stream size                      : 544 MiB (88%)

Audio
ID                               : 1
Format                           : MPEG Audio
Format version                   : Version 1
Format profile                   : Layer 3
Mode                             : Joint stereo
Codec ID                         : 55
Codec ID/Hint                    : MP3
Duration                         : 1h 14mn
Bit rate mode                    : Constant
Bit rate                         : 128 Kbps
Channel(s)                       : 2 channels
Sampling rate                    : 44.1 KHz
Compression mode                 : Lossy
Stream size                      : 68.0 MiB (11%)
Alignment                        : Aligned on interleaves
Interleave, duration             : 26 ms (0.65 video frame)
